# Blender v2.78 (sub 0) OBJ File: '1revisions.blend'
# www.blender.org
mtllib rock_02.mtl
o Cube_Cube.032
v -71.562439 22.230742 -85.298523
v -60.749256 29.660450 52.784927
v -81.455757 160.094315 -85.298515
v -51.924610 148.497589 65.387497
v 61.294113 32.682606 -51.278530
v 61.294113 32.682598 54.230743
v 85.662582 138.191864 -51.278522
v 57.908237 134.219315 61.637093
v -71.867035 85.414787 -102.244759
v -49.885544 80.561432 112.316216
v 100.166069 85.437241 -51.278526
v 74.408730 81.825050 85.668510
v -5.477716 168.088440 72.381996
v -7.102581 22.230742 -85.298523
v -7.102581 20.977377 62.448265
v 1.279798 77.483192 113.694527
v 16.702888 85.414787 -102.244759
v -132.595276 41.764977 -39.296452
v -113.086533 49.026176 51.466286
v -109.897163 85.280853 93.858070
v -117.628349 138.954208 61.199554
v -140.135422 147.792603 -39.296444
v -73.524597 117.658195 63.677578
v -78.960823 128.609161 2.709961
v -90.614845 125.792671 29.410118
v -87.070465 162.650085 10.569438
v -83.456337 143.664124 75.046410
v -100.488831 155.191788 37.850212
v -27.338869 143.826965 35.170067
v -29.946714 136.653427 60.750652
v -46.648552 183.866531 20.684834
v -26.085785 148.147064 5.607017
v -26.496405 180.858200 53.091038
v -30.282461 162.253036 76.522324
v -67.757507 175.611313 52.436371
v -66.892586 180.834152 7.148521
v -58.649136 145.430939 -1.638559
v -58.198929 150.056091 81.359779
v -48.267174 124.050156 69.990936
v -53.816402 137.511703 35.480103
v -63.931419 15.857573 -17.113552
v -66.690186 168.755554 -9.955505
v 71.785400 145.821426 5.179283
v 61.294113 14.579612 1.476110
v 87.287399 79.169891 17.194994
v -7.102581 0.534732 -11.425135
v 1.153690 200.050903 -6.458266
v -126.779305 37.772106 5.496077
v -128.881882 154.908463 10.951557
v -134.175354 89.263435 35.690228
v 4.963024 194.205338 -51.747166
v 13.742739 183.991089 -75.694305
v 10.635675 156.484009 -90.715393
v 0.296022 185.025650 -83.406250
v -136.105148 86.298698 -39.296448
v -137.405548 90.848541 -18.592319
v -139.183517 95.635086 -39.296448
v -123.569359 90.670898 -53.502113
vn -0.9903 0.0577 0.1260
vn -0.2371 -0.9439 0.2301
vn 0.4727 -0.3723 -0.7987
vn -0.1520 -0.6963 0.7015
vn -0.1545 0.4739 0.8669
vn -0.0294 0.1961 -0.9801
vn 0.9232 0.3149 0.2203
vn -0.2478 0.9663 -0.0700
vn 0.3319 0.4362 0.8364
vn 0.2592 -0.6274 0.7343
vn 0.0000 -0.2590 -0.9659
vn 0.1677 -0.9431 0.2871
vn -0.4102 0.8570 0.3119
vn -0.9329 0.1404 0.3316
vn -0.8804 -0.3266 0.3438
vn -0.2670 -0.7139 0.6473
vn -0.5287 0.8215 -0.2137
vn -0.8878 -0.1389 -0.4388
vn -0.8605 -0.4138 0.2970
vn 0.9061 0.3521 -0.2347
vn 0.9934 -0.0606 0.0977
vn -0.1646 0.9758 0.1442
vn 0.2952 0.4093 -0.8633
vn -0.1494 0.7476 0.6471
vn 0.4390 -0.3483 0.8283
vn 0.1699 -0.9676 -0.1867
vn 0.3091 -0.8947 -0.3224
vn 0.3282 -0.8650 -0.3796
vn 0.4472 -0.8886 -0.1017
vn -0.1135 -0.4341 0.8937
vn -0.5051 0.6500 0.5677
vn -0.5926 0.8052 0.0241
vn -0.6635 -0.1460 -0.7338
vn 0.5045 0.2035 -0.8391
vn 0.2640 -0.9202 -0.2892
vn -0.1335 0.9445 0.3000
vn 0.9454 0.2577 0.1997
vn -0.1145 -0.9757 -0.1866
vn -0.8279 0.3380 -0.4477
vn 0.8905 0.3848 -0.2428
vn -0.3537 0.9288 -0.1109
vn -0.4338 -0.8853 -0.1674
vn -0.9870 -0.1482 0.0619
vn 0.5165 0.7891 0.3324
vn 0.9106 -0.3802 0.1618
vn 0.5852 0.8103 -0.0314
vn -0.2873 -0.9267 0.2422
vn -0.1700 0.5300 0.8308
vn -0.3111 0.1516 -0.9382
vn -0.3397 -0.9394 -0.0458
vn -0.6548 0.0431 -0.7546
vn 0.8754 -0.4833 -0.0042
usemtl 455A64
s off
f 57//1 56//1 50//1 49//1 22//1
f 46//2 15//2 2//2 41//2
f 17//3 11//3 5//3 14//3
f 16//4 10//4 2//4 15//4
f 13//5 4//5 10//5 16//5
f 3//6 54//6 53//6 17//6 9//6
f 43//7 8//7 12//7 45//7
f 42//8 3//8 22//8 49//8
f 8//9 13//9 16//9 12//9
f 12//10 16//10 15//10 6//10
f 9//11 17//11 14//11 1//11
f 44//12 6//12 15//12 46//12
f 42//13 4//13 13//13 47//13
f 50//14 20//14 21//14 49//14
f 48//15 19//15 20//15 50//15
f 2//16 10//16 20//16 19//16
f 56//17 58//17 55//17
f 24//18 25//18 28//18 26//18
f 25//19 23//19 27//19 28//19
f 32//20 31//20 33//20 29//20
f 29//21 33//21 34//21 30//21
f 36//22 35//22 33//22 31//22
f 37//23 36//23 31//23 32//23
f 35//24 38//24 34//24 33//24
f 38//25 39//25 30//25 34//25
f 40//26 37//26 32//26 29//26
f 39//27 40//27 29//27 30//27
f 23//28 25//28 40//28 39//28
f 25//29 24//29 37//29 40//29
f 27//30 23//30 39//30 38//30
f 28//31 27//31 38//31 35//31
f 26//32 28//32 35//32 36//32
f 9//33 1//33 18//33 55//33 58//33
f 53//34 52//34 7//34 11//34 17//34
f 5//35 44//35 46//35 14//35
f 4//36 42//36 49//36 21//36
f 7//37 43//37 45//37 11//37
f 14//38 46//38 41//38 1//38
f 53//39 51//39 52//39
f 51//40 53//40 54//40
f 3//41 42//41 47//41 51//41 54//41
f 58//42 56//42 57//42
f 18//43 48//43 50//43 56//43 55//43
usemtl 78909C
f 47//44 13//44 8//44 43//44
f 45//45 12//45 6//45 44//45
f 52//46 51//46 47//46 43//46 7//46
f 41//47 2//47 19//47 48//47
f 10//48 4//48 21//48 20//48
f 24//49 26//49 36//49 37//49
f 1//50 41//50 48//50 18//50
f 3//51 9//51 58//51 57//51 22//51
f 11//52 45//52 44//52 5//52
